<svg width="40" height="40" xmlns="http://www.w3.org/2000/svg">
 <!-- Created with Method Draw - http://github.com/duopixel/Method-Draw/ -->
 <g>
  <title>background</title>
  <rect fill="none" id="canvas_background" height="42" width="42" y="-1" x="-1"/>
  <g display="none" overflow="visible" y="0" x="0" height="100%" width="100%" id="canvasGrid">
   <rect fill="url(#gridpattern)" stroke-width="0" y="0" x="0" height="100%" width="100%"/>
  </g>
 </g>
 <g>
  <title>Layer 1</title>
  <path id="svg_1" d="m20,1.959885c-9.963397,0 -18.040115,8.076719 -18.040115,18.040115c0,9.963397 8.076719,18.040115 18.040115,18.040115c9.963397,0 18.040115,-8.076719 18.040115,-18.040115c0,-9.963397 -8.076719,-18.040115 -18.040115,-18.040115zm0,32.355283c-7.895498,0 -14.316409,-6.422152 -14.316409,-14.315168c0,-7.894257 6.420911,-14.316409 14.316409,-14.316409c7.895498,0 14.315168,6.420911 14.315168,14.316409c0,7.895498 -6.422152,14.315168 -14.315168,14.315168zm-0.001241,-27.813603c-0.686403,0 -1.239994,0.556073 -1.239994,1.241235l0,11.445432l-7.504509,3.281826c-0.628065,0.275554 -0.913549,1.007883 -0.637995,1.635948c0.203563,0.465463 0.657855,0.7435 1.13573,0.7435c0.166326,0 0.336375,-0.033513 0.497735,-0.105505l8.224426,-3.5971c0.006206,-0.002482 0.011171,-0.004965 0.016136,-0.007447l0.004965,-0.002482c0.018619,-0.007447 0.028548,-0.024825 0.045926,-0.031031c0.129088,-0.064544 0.249488,-0.14026 0.346305,-0.242041c0.042202,-0.042202 0.065785,-0.096816 0.098058,-0.145225c0.059579,-0.079439 0.125365,-0.157637 0.161361,-0.253212c0.02979,-0.074474 0.032272,-0.155154 0.047167,-0.234593c0.016136,-0.08068 0.047167,-0.151431 0.047167,-0.232111l0,-12.2572c0,-0.683921 -0.556073,-1.239994 -1.242477,-1.239994z" stroke-width="1.5" stroke="#007887" fill="#fff"/>
 </g>
</svg>