<svg width="24" height="24" xmlns="http://www.w3.org/2000/svg">
 <!-- Created with Method Draw - http://github.com/duopixel/Method-Draw/ -->
 <g>
  <title>background</title>
  <rect fill="none" id="canvas_background" height="26" width="26" y="-1" x="-1"/>
  <g display="none" overflow="visible" y="0" x="0" height="100%" width="100%" id="canvasGrid">
   <rect fill="url(#gridpattern)" stroke-width="0" y="0" x="0" height="100%" width="100%"/>
  </g>
 </g>
 <g>
  <title>Layer 1</title>
  <path id="svg_4" d="m12,1.55666c-5.767765,0 -10.44334,4.675575 -10.44334,10.44334c0,5.767765 4.675575,10.44334 10.44334,10.44334c5.767765,0 10.44334,-4.675575 10.44334,-10.44334c0,-5.767765 -4.675575,-10.44334 -10.44334,-10.44334zm0,18.730325c-4.570668,0 -8.287704,-3.717754 -8.287704,-8.286985c0,-4.569949 3.717036,-8.287704 8.287704,-8.287704c4.570668,0 8.286985,3.717036 8.286985,8.287704c0,4.570668 -3.717754,8.286985 -8.286985,8.286985zm-0.000719,-16.101167c-0.397356,0 -0.717827,0.321908 -0.717827,0.718545l0,6.625708l-4.344326,1.899834c-0.363584,0.159517 -0.528849,0.583459 -0.369332,0.947043c0.117841,0.269455 0.380829,0.430409 0.657469,0.430409c0.096285,0 0.194726,-0.019401 0.288137,-0.061076l4.761082,-2.082345c0.003593,-0.001437 0.006467,-0.002874 0.009341,-0.004311l0.002874,-0.001437c0.010778,-0.004311 0.016527,-0.014371 0.026586,-0.017964c0.074729,-0.037364 0.144428,-0.081196 0.200474,-0.140116c0.024431,-0.024431 0.038083,-0.056047 0.056765,-0.08407c0.03449,-0.045987 0.072573,-0.091255 0.093411,-0.146583c0.017245,-0.043113 0.018682,-0.089818 0.027305,-0.135805c0.009341,-0.046705 0.027305,-0.087663 0.027305,-0.134368l0,-7.095637c0,-0.395919 -0.321908,-0.717827 -0.719264,-0.717827z" stroke-width="1.5" stroke="#007887" fill="#fff"/>
 </g>
</svg>